<svg xmlns="http://www.w3.org/2000/svg" viewBox="0 0 512 512">
  <!-- Purple background with rounded corners -->
  <rect width="512" height="512" fill="#9381FF" rx="102.4"/>
  <!-- White digger icon centered and scaled -->
  <g transform="translate(51.2, 89.6) scale(10.24)">
    <path d="M37,0h-13c-.33,0-.65,.17-.83,.45l-2.91,4.37-.82-1.97c-.47-1.12-1.56-1.85-2.77-1.85H8c-1.66,0-3,1.34-3,3v4h-1.08c-1.61,0-2.92,1.31-2.92,2.92v2.58c-.61,.46-1,1.18-1,2v3c0,1.38,1.12,2.5,2.5,2.5h2.5v1.08c-2.84,.48-5,2.94-5,5.92,0,3.31,2.69,6,6,6H29c3.31,0,6-2.69,6-6h0c0-3.31-2.69-6-6-6h-8v-1h2.5c1.38,0,2.5-1.12,2.5-2.5v-3c0-1-.59-1.86-1.43-2.26l4.02-7.24h5.41V15h-4c-.33,0-.64,.16-.83,.44-.19,.27-.22,.62-.1,.93,0,0,.78,1.95,2.11,3.52,1.01,1.19,2.33,2.11,3.82,2.11h2.05c1.63,0,2.95-1.32,2.95-2.95V3c0-1.66-1.34-3-3-3h0ZM6,24H29c2.21,0,4,1.79,4,4h0c0,2.21-1.79,4-4,4H6c-2.21,0-4-1.79-4-4s1.79-4,4-4h0Zm1,1c-1.66,0-3,1.34-3,3s1.34,3,3,3,3-1.34,3-3-1.34-3-3-3h0Zm7,0c-1.66,0-3,1.34-3,3s1.34,3,3,3,3-1.34,3-3-1.34-3-3-3h0Zm7,0c-1.66,0-3,1.34-3,3s1.34,3,3,3,3-1.34,3-3-1.34-3-3-3h0Zm7,0c-1.66,0-3,1.34-3,3s1.34,3,3,3,3-1.34,3-3-1.34-3-3-3h0Zm-21,2c.55,0,1,.45,1,1s-.45,1-1,1-1-.45-1-1,.45-1,1-1h0Zm7,0c.55,0,1,.45,1,1s-.45,1-1,1-1-.45-1-1,.45-1,1-1h0Zm7,0c.55,0,1,.45,1,1s-.45,1-1,1-1-.45-1-1,.45-1,1-1h0Zm7,0c.55,0,1,.45,1,1s-.45,1-1,1-1-.45-1-1,.45-1,1-1h0ZM7,22h12v-1H7v1h0Zm28-5h3v2.05c0,.53-.43,.95-.95,.95h-2.05c-.92,0-1.67-.67-2.29-1.41-.44-.52-.81-1.09-1.1-1.59h3.39Zm-11.5-2H2.5c-.28,0-.5,.22-.5,.5v3.01c0,.27,.22,.5,.5,.5H23.5c.28,0,.5-.22,.5-.5v-3.01c0-.27-.22-.5-.5-.5h0Zm14.5-9.17c-.31,.11-.65,.17-1,.17h-1V15h2V5.83h0Zm-16.5,7.17l-3.91-9.38c-.16-.37-.52-.62-.92-.62H8c-.55,0-1,.45-1,1V13h14.5ZM5,10h-1.08c-.51,0-.92,.41-.92,.92v2.08h2v-3h0ZM9,4c-.55,0-1,.45-1,1v6c0,.55,.45,1,1,1h9c.32,0,.62-.15,.81-.42,.19-.26,.24-.6,.14-.9l-2-6c-.14-.41-.52-.68-.95-.68h-7Zm15.54-2l-3.36,5.03,1.95,4.68,4-7.2c.18-.32,.51-.51,.87-.51h6v-1c0-.35,.06-.69,.17-1h-9.63Zm-13.54,6v4h-1v-4h1Zm2,0h2.28l1.33,4h-3.61v-4h0Zm24-4c.55,0,1,.45,1,1s-.45,1-1,1-1-.45-1-1,.45-1,1-1h0Z" fill="#FFFFFF" stroke="none"/>
  </g>
</svg>